<svg xmlns="http://www.w3.org/2000/svg" viewBox="0 0 62.21 80"><defs><style>.cls-1{fill:#545454;}.cls-2{fill:#c5e6f6;}.cls-3{fill:#59abd8;}.cls-4{fill:#73c2ed;}.cls-5{fill:#b4dff4;}</style></defs><g id="Layer_2" data-name="Layer 2"><g id="Layer_1-2" data-name="Layer 1"><path d="M8.94,80a3.72,3.72,0,0,0-1.31-.37A10.41,10.41,0,0,1,.06,69.76c0-2.42,0-4.84,0-7.27a5.45,5.45,0,0,1,1.12-3.57c.19-.23.2-.36,0-.57a4.39,4.39,0,0,1-.08-5.84c.2-.22.19-.34,0-.58-1.5-2.08-1.48-3.79.08-5.82.2-.27.13-.38,0-.57A4.63,4.63,0,0,1,.05,42.3q0-4.8,0-9.61a4.57,4.57,0,0,1,1.11-3.23c.24-.27.17-.4,0-.62A4.56,4.56,0,0,1,.05,25.75,11.65,11.65,0,0,1,1.6,18.94c.56-.89.88-1,1.87-.64.74.47.89,1,.39,1.84a9.44,9.44,0,0,0-1.24,5.32c0,1.63.67,2.27,2.3,2.27H26.78c1.25,0,2.49,0,3.74,0a1.84,1.84,0,0,0,1.95-2,8.82,8.82,0,0,0-1.57-6.12,7.24,7.24,0,0,0-5.86-3c-.62,0-1.24,0-1.87,0a1.69,1.69,0,0,1-1.42-.93,10.23,10.23,0,0,1-.23-3.31c0-1.16,0-1.18-1.16-1.19s-2.38,0-3.57,0c-.83,0-1.66,0-2.49,0-.52,0-.75.21-.75.73,0,.94,0,1.87,0,2.8a1.71,1.71,0,0,1-1.8,1.91,15,15,0,0,0-4.6.58,1,1,0,0,1-1.42-.65c-.27-1.11-.1-1.44,1-1.85A9.75,9.75,0,0,1,10.25,14c.52,0,.75-.13.7-.7a14.59,14.59,0,0,1,0-1.87c0-.4-.09-.53-.51-.54-1.66-.06-2.28-.73-2.28-2.38s0-3.17,0-4.76A3.69,3.69,0,0,1,11.9,0H23.22a3.63,3.63,0,0,1,3.7,3.64c0,1.74,0,3.49,0,5.23a1.89,1.89,0,0,1-2.05,2c-.59,0-.77.15-.72.73.06.73-.22,1.61.1,2.14s1.29.21,2,.33a10.5,10.5,0,0,1,8.64,9.23A9.8,9.8,0,0,1,35,25.44c-.06.76.25.82.87.82q12.27,0,24.52,0c1.62,0,1.93.39,1.78,2-.53,5.46-1,10.93-1.54,16.39Q59.82,53.48,59,62.3c-.1,1-.2,2.07-.27,3.11a1.25,1.25,0,0,1-1.32,1.33c-.89,0-1.31-.46-1.25-1.44.09-1.61.27-3.21.42-4.81q.51-5.55,1-11.1c.19-2,.36-4,.55-6,.07-.86,0-1-.85-1-7,0-14.1,0-21.14,0a1,1,0,0,0-.74.17,9.89,9.89,0,0,1-1.12,3c-.19.23,0,.5.13.72a4.58,4.58,0,0,1,0,5.53.74.74,0,0,0,0,.93,4.37,4.37,0,0,1,0,5.31,1,1,0,0,0,0,1.28,5.71,5.71,0,0,1,.82,3.13v5.77c0,2.3.33,4.57.53,6.84a2.46,2.46,0,0,0,2.76,2.37h14A2.49,2.49,0,0,0,55.24,75c.14-1.16.16-2.33.36-3.48a1.4,1.4,0,0,1,.88-1.19c.19-.07.4-.14.56.08,1,.3,1.17.62,1.06,1.64-.14,1.24-.22,2.48-.39,3.71a4.73,4.73,0,0,1-3.9,4.18c-.07,0-.12.07-.19.11H37.22c-2.19-.41-2.74-.92-4.16-3.85-1.9,2-4,3.7-6.93,3.77-.26,0-.54-.08-.78.08Z"/><path class="cls-1" d="M26.16,79.87a.28.28,0,0,0,0,.13h-.78A.84.84,0,0,1,26.16,79.87Z"/><path class="cls-2" d="M5.72,16.55A1.2,1.2,0,0,0,7.23,17a10.26,10.26,0,0,1,4.35-.66c1.36,0,1.7-.35,1.71-1.7,0-1.06,0-2.13,0-3.19,0-.41.11-.53.52-.52,1,0,2,0,2.95,0,.38.48.21,1,.23,1.58s0,1.09,0,1.64.23.76.75.74a11.15,11.15,0,0,1,3.1.31,2.21,2.21,0,0,1,1.11.53,1.79,1.79,0,0,0,1.21.62,8.17,8.17,0,0,1,4.24,5.3,10.44,10.44,0,0,1,.33,4.94A1.59,1.59,0,0,1,26.91,28l-7.1,0h-15c-1.69,0-2.37-.73-2.42-2.43A9.29,9.29,0,0,1,3.75,19.9a1.17,1.17,0,0,0-.28-1.6C4.24,17.74,4.75,16.85,5.72,16.55Z"/><path class="cls-3" d="M35.06,42.35c.17-.32.46-.15.69-.15,7.33,0,14.66,0,22,0,.65,0,.78.19.72.79q-.93,9.57-1.82,19.16c-.09,1-.15,1.92-.24,2.88s0,1.3,1,1.72A31.45,31.45,0,0,1,57,70.36a1.18,1.18,0,0,0-1.26,1.27c-.07,1.06-.21,2.11-.29,3.17-.16,2-1.11,2.86-3.05,2.86l-3,0a.37.37,0,0,1,0-.31c.94-1.63.79-3.47,1-5.23.45-4.27.81-8.54,1.21-12.81s.79-8.39,1.16-12.58c.1-1.06.22-2.12.29-3.18.07-.88,0-.93-.89-.93H36.33C35.9,42.58,35.44,42.68,35.06,42.35Z"/><path class="cls-2" d="M10.35,51.07a1.17,1.17,0,0,0-.74,1.51c.19.71.77.83,1.41.83H26.21c.29,0,.57,0,.86,0a1.64,1.64,0,0,1,.81,1.42,3.29,3.29,0,0,1-2.25,3.73,3.54,3.54,0,0,1,2.12,3.18,57.22,57.22,0,0,1,.14,6.93,10.28,10.28,0,0,1-2.1,6.78A5.22,5.22,0,0,1,23,77.63c-4.37,0-8.75.09-13.12,0A7.88,7.88,0,0,1,2.43,70c-.1-2.57-.06-5.15,0-7.73,0-1.84.83-2.57,2.66-2.57H23.27c1,0,1.44-.34,1.46-1.11a1.09,1.09,0,0,0-1-1.21,4.07,4.07,0,0,0-.78,0H4.48a2,2,0,0,1-1.92-2.83A1.84,1.84,0,0,1,4,53.43c1.08-.18,1.41-.47,1.41-1.21,0-.94-.65-1.1-1.4-1.22a2,2,0,0,1-.2-3.81,1.55,1.55,0,0,1,.77-.07H26.38c1,0,1.21.17,1.46,1.12a3.77,3.77,0,0,1,.08,1.16c-.11,1.29-.47,1.62-1.74,1.62h-15A2.44,2.44,0,0,0,10.35,51.07Z"/><path class="cls-4" d="M35.06,42.35H52.63c.55,0,.78,0,.71.74q-.37,4.17-.79,8.34c-.26,2.54-.42,5.1-.65,7.65s-.53,5-.76,7.48-.42,5.11-.65,7.66a5.77,5.77,0,0,1-1.08,3.42c-3.77,0-7.54,0-11.31,0a2.42,2.42,0,0,1-2.46-2.17c-.28-2.3-.54-4.6-.61-6.91s.15-4.89-.12-7.32A4.09,4.09,0,0,0,34,59c-.25-.31-.2-.48,0-.77a4.27,4.27,0,0,0,.06-5.7c-.24-.3-.18-.44,0-.71A4.32,4.32,0,0,0,34,46.15c-.17-.22-.33-.35-.07-.64A4.49,4.49,0,0,0,35.06,42.35Z"/><path class="cls-4" d="M3.89,44.56a1.83,1.83,0,0,1-1.48-1.84q0-5.22,0-10.43a1.82,1.82,0,0,1,1.48-1.84,2.71,2.71,0,0,1,.85-.05H26.21c1.17,0,1.52.31,1.56,1.52.05,1.66,0,3.33,0,5v5.47a5.71,5.71,0,0,1-.06,1c-.17,1-.43,1.22-1.44,1.22H4.67A2.28,2.28,0,0,1,3.89,44.56Z"/><path class="cls-2" d="M53.62,39.83l-14.27,0c-1.22,0-2.44,0-3.66,0-.58,0-.68-.17-.67-.69,0-2.21,0-4.42,0-6.63a4.5,4.5,0,0,0-1-3,.54.54,0,0,1,.35-.92,1.7,1.7,0,0,1,.39,0H54.33c.13,0,.26,0,.39,0a4.21,4.21,0,0,1,0,2.2c-.23,2.62-.5,5.25-.72,7.87A1.49,1.49,0,0,1,53.62,39.83Z"/><path class="cls-5" d="M23,77.63a9.12,9.12,0,0,0,4.41-6.19,14.26,14.26,0,0,0,.26-2.69c0-1.77,0-3.54,0-5.3a10.53,10.53,0,0,0-.23-2.31,2.94,2.94,0,0,0-2.54-2.5c2.76-1,3.56-3.13,2.16-5.2,1.3,0,2.6,0,3.89,0a1.91,1.91,0,0,1,1.85,1.94,1.93,1.93,0,0,1-1.72,2c-.76.08-1.28.37-1.31,1.16s.43,1.12,1.2,1.24a1.83,1.83,0,0,1,1.59,1.79c.15,3.37.5,6.78-.19,10.1a7.72,7.72,0,0,1-7.58,6C24.2,77.66,23.6,77.64,23,77.63Z"/><path class="cls-3" d="M3.89,44.56l13,0h9.05c1.37,0,1.64-.28,1.65-1.69V32c0-1.24-.29-1.53-1.49-1.53H4.67l-.78,0a1.37,1.37,0,0,1,.91-.13H30.34a2,2,0,0,1,2.35,2.33v9.69a2.05,2.05,0,0,1-2.35,2.33H4.8A1.37,1.37,0,0,1,3.89,44.56Z"/><path class="cls-5" d="M53.62,39.83c.22-1.76.35-3.53.49-5.3.16-2,.4-3.94.61-5.91,1.48,0,3,0,4.44,0,.49,0,.62.11.57.6-.25,2.51-.47,5-.71,7.53-.08.88-.19,1.76-.23,2.64,0,.42-.17.52-.57.52C56.69,39.84,55.16,39.84,53.62,39.83Z"/><path class="cls-5" d="M26.91,28a3.31,3.31,0,0,0,.75-2.39,12.39,12.39,0,0,0-.61-4.35,9.77,9.77,0,0,0-3.67-4.62,2.18,2.18,0,0,1-.22-.21C27.5,16,31,18,32.27,21.82a11.27,11.27,0,0,1,.38,4.47A1.83,1.83,0,0,1,30.81,28C29.51,28,28.21,28,26.91,28Z"/><path class="cls-4" d="M10.53,8.44c0-1.55,0-3.11,0-4.67a1.32,1.32,0,0,1,1.42-1.41c2.39,0,4.78,0,7.17,0a1.46,1.46,0,0,1,.69,1.39c.06,1.33,0,2.65,0,4,0,.52-.2.79-.8.78-2.7,0-5.41,0-8.11,0A.59.59,0,0,1,10.53,8.44Z"/><path class="cls-3" d="M10.53,8.44c2.75,0,5.51,0,8.26,0,.63,0,.81-.19.79-.8,0-1.14,0-2.29,0-3.43a3.32,3.32,0,0,0-.47-1.85c1.35,0,2.7,0,4.06,0a1.31,1.31,0,0,1,1.42,1.33c0,1.48,0,3,0,4.45,0,.4-.17.46-.51.46H10.9C10.76,8.6,10.58,8.67,10.53,8.44Z"/><path class="cls-5" d="M10.35,51.07c.28-.24.6-.13.9-.13,5.05,0,10.1,0,15.15,0a1,1,0,0,0,1.13-.8,3.45,3.45,0,0,0,.14-1.62c-.14-1.09-.45-1.34-1.56-1.34H3.78a.78.78,0,0,1,.59-.14h26.4A2,2,0,0,1,32.58,50a2.06,2.06,0,0,1-2.08,1.09c-4.61,0-9.21,0-13.82,0Z"/><path class="cls-5" d="M22,15.77a12.65,12.65,0,0,0-4.57-.6c-.48,0-.64-.15-.63-.63,0-1.19,0-2.38,0-3.57,1.51,0,3,0,4.52,0,.45,0,.56.13.57.57A25.39,25.39,0,0,0,22,15.77Z"/></g></g></svg>