<svg xmlns="http://www.w3.org/2000/svg" xmlns:xlink="http://www.w3.org/1999/xlink" viewBox="0 0 80 80"><defs><style>.cls-1{opacity:0.5;fill:url(#linear-gradient);}.cls-2{fill:#545454;}.cls-3{fill:#c5e6f6;}.cls-4{fill:#59abd8;}.cls-5{fill:#73c2ed;}.cls-6{fill:#b4dff4;}</style><linearGradient id="linear-gradient" x1="40" y1="80" x2="40" gradientUnits="userSpaceOnUse"><stop offset="0.46" stop-color="#cbffec"/><stop offset="0.59" stop-color="#d4ffef"/><stop offset="0.81" stop-color="#ecfff8"/><stop offset="0.94" stop-color="#fff"/></linearGradient></defs><g id="Layer_2" data-name="Layer 2"><g id="Layer_1-2" data-name="Layer 1"><rect class="cls-1" width="80" height="80" rx="12"/><path d="M26.15,65a2.64,2.64,0,0,0-.82-.23A6.49,6.49,0,0,1,20.6,58.6c0-1.51,0-3,0-4.54a3.37,3.37,0,0,1,.7-2.24c.12-.14.12-.22,0-.35a2.74,2.74,0,0,1,0-3.65c.12-.14.11-.21,0-.36a2.67,2.67,0,0,1,.05-3.64c.13-.17.08-.24,0-.36a2.89,2.89,0,0,1-.69-2c0-2,0-4,0-6a2.85,2.85,0,0,1,.69-2c.15-.16.11-.25,0-.39a2.8,2.8,0,0,1-.68-1.93,7.31,7.31,0,0,1,1-4.26c.35-.55.55-.62,1.17-.39.46.29.55.62.24,1.15a5.93,5.93,0,0,0-.77,3.32c0,1,.42,1.42,1.43,1.42H37.3c.78,0,1.55,0,2.33,0a1.14,1.14,0,0,0,1.22-1.22,5.5,5.5,0,0,0-1-3.82,4.54,4.54,0,0,0-3.66-1.91c-.39,0-.78,0-1.17,0a1.07,1.07,0,0,1-.89-.58A6.54,6.54,0,0,1,34,22.73c0-.73,0-.74-.73-.74s-1.48,0-2.23,0H29.5c-.33,0-.47.14-.47.47,0,.58,0,1.16,0,1.75a1.07,1.07,0,0,1-1.12,1.19,9.08,9.08,0,0,0-2.88.36.62.62,0,0,1-.88-.41c-.17-.69-.07-.9.58-1.15A6.14,6.14,0,0,1,27,23.77c.33,0,.48-.08.45-.43a7.62,7.62,0,0,1,0-1.17c0-.25-.06-.33-.32-.34-1,0-1.42-.45-1.42-1.49s0-2,0-3A2.3,2.3,0,0,1,28,15h7.07a2.29,2.29,0,0,1,2.32,2.27c0,1.09,0,2.18,0,3.27a1.19,1.19,0,0,1-1.28,1.28c-.37,0-.48.09-.45.45s-.14,1,.06,1.34.81.13,1.23.2a6.57,6.57,0,0,1,5.4,5.77,5.82,5.82,0,0,1,.09,1.31c0,.47.15.51.55.51H58.31c1,0,1.21.24,1.11,1.27-.33,3.41-.64,6.83-1,10.25q-.52,5.51-1,11c-.06.65-.12,1.29-.17,1.94a.77.77,0,0,1-.82.83c-.56,0-.82-.28-.79-.9.06-1,.17-2,.27-3q.31-3.46.65-6.93c.12-1.25.22-2.49.34-3.74.05-.53,0-.6-.53-.61-4.4,0-8.81,0-13.21,0a.62.62,0,0,0-.46.1A5.92,5.92,0,0,1,42,43.47c-.11.15,0,.31.09.45a2.88,2.88,0,0,1,0,3.46.45.45,0,0,0,0,.58,2.73,2.73,0,0,1,0,3.32.63.63,0,0,0,0,.79,3.55,3.55,0,0,1,.51,2c0,1.2,0,2.41,0,3.61,0,1.43.21,2.85.34,4.27a1.53,1.53,0,0,0,1.72,1.48h8.73a1.55,1.55,0,0,0,1.7-1.55c.09-.72.1-1.45.23-2.17a.85.85,0,0,1,.55-.74c.12,0,.25-.09.35,0,.6.18.73.38.66,1s-.14,1.55-.24,2.32a3,3,0,0,1-2.44,2.61.75.75,0,0,0-.12.07H43.82c-1.36-.25-1.71-.58-2.6-2.41A6.14,6.14,0,0,1,36.89,65c-.16,0-.34,0-.49,0Z"/><path class="cls-2" d="M36.91,64.92a.19.19,0,0,0,0,.08H36.4A.52.52,0,0,1,36.91,64.92Z"/><path class="cls-3" d="M24.14,25.34a.74.74,0,0,0,.94.28,6.63,6.63,0,0,1,2.72-.41c.84,0,1.06-.21,1.06-1.06,0-.66,0-1.33,0-2,0-.26.07-.34.32-.33.62,0,1.23,0,1.85,0,.24.31.13.66.14,1s0,.69,0,1,.14.47.47.46a6.6,6.6,0,0,1,1.93.2,1.38,1.38,0,0,1,.7.33,1.15,1.15,0,0,0,.75.39,5.11,5.11,0,0,1,2.66,3.31,6.55,6.55,0,0,1,.2,3.08,1,1,0,0,1-.51.83l-4.44,0H23.57c-1.06,0-1.49-.45-1.52-1.51a5.86,5.86,0,0,1,.85-3.54.73.73,0,0,0-.17-1C23.21,26.09,23.53,25.53,24.14,25.34Z"/><path class="cls-4" d="M42.47,41.47c.11-.2.29-.09.43-.09H56.65c.4,0,.48.12.44.49q-.57,6-1.13,12c-.06.6-.1,1.2-.15,1.79s0,.82.62,1.08A21.53,21.53,0,0,1,56.21,59a.73.73,0,0,0-.79.79c0,.66-.13,1.32-.18,2a1.68,1.68,0,0,1-1.91,1.78H51.44a.25.25,0,0,1,0-.19,7.7,7.7,0,0,0,.62-3.28c.28-2.66.5-5.33.76-8s.49-5.24.72-7.86c.06-.67.14-1.33.18-2s0-.58-.56-.58H43.27A1.13,1.13,0,0,1,42.47,41.47Z"/><path class="cls-3" d="M27,46.92a.73.73,0,0,0-.47.94c.12.44.49.52.89.52,3.16,0,6.33,0,9.49,0l.54,0a1,1,0,0,1,.5.89,2.05,2.05,0,0,1-1.4,2.33,2.19,2.19,0,0,1,1.32,2A34.94,34.94,0,0,1,38,57.94a6.37,6.37,0,0,1-1.32,4.24,3.3,3.3,0,0,1-1.73,1.34c-2.73,0-5.47.06-8.2,0a4.92,4.92,0,0,1-4.66-4.75c-.06-1.61,0-3.23,0-4.83,0-1.16.52-1.61,1.66-1.61H35.1c.63,0,.9-.21.91-.7a.67.67,0,0,0-.6-.75,2.68,2.68,0,0,0-.49,0H23.36a1.23,1.23,0,0,1-1.2-1.77,1.14,1.14,0,0,1,.88-.69c.67-.11.88-.29.88-.75s-.4-.69-.88-.76a1.17,1.17,0,0,1-1-1.16,1.15,1.15,0,0,1,.87-1.23,1,1,0,0,1,.48,0H37.05c.62,0,.75.1.91.7a2.23,2.23,0,0,1,0,.73c-.07.8-.29,1-1.09,1H27.56A1.56,1.56,0,0,0,27,46.92Z"/><path class="cls-5" d="M42.47,41.47h11c.35,0,.49,0,.45.46-.16,1.74-.32,3.48-.5,5.22-.16,1.59-.26,3.19-.41,4.78s-.33,3.12-.47,4.68-.26,3.19-.4,4.78a3.65,3.65,0,0,1-.68,2.14c-2.36,0-4.71,0-7.07,0a1.52,1.52,0,0,1-1.54-1.36c-.17-1.43-.33-2.87-.37-4.31s.09-3.06-.08-4.58a2.6,2.6,0,0,0-.57-1.38c-.16-.2-.12-.3,0-.48a2.67,2.67,0,0,0,0-3.56c-.15-.19-.11-.28,0-.45a2.69,2.69,0,0,0-.05-3.57c-.11-.13-.2-.21,0-.39A2.87,2.87,0,0,0,42.47,41.47Z"/><path class="cls-5" d="M23,42.85a1.14,1.14,0,0,1-.92-1.15c0-2.17,0-4.35,0-6.52A1.13,1.13,0,0,1,23,34a1.59,1.59,0,0,1,.53,0H36.94c.73,0,1,.2,1,1,0,1,0,2.08,0,3.12v3.42a3.33,3.33,0,0,1,0,.63c-.11.62-.27.76-.9.76H23.48A1.6,1.6,0,0,1,23,42.85Z"/><path class="cls-3" d="M54.07,39.89l-8.92,0c-.76,0-1.52,0-2.29,0-.35,0-.42-.11-.41-.43,0-1.38,0-2.77,0-4.15a2.87,2.87,0,0,0-.64-1.89.34.34,0,0,1,.22-.58H54.51l.25,0a2.55,2.55,0,0,1,0,1.37c-.14,1.64-.31,3.28-.44,4.92A.93.93,0,0,1,54.07,39.89Z"/><path class="cls-6" d="M34.94,63.52a5.75,5.75,0,0,0,2.76-3.87A8.62,8.62,0,0,0,37.86,58c0-1.11,0-2.21,0-3.32a7,7,0,0,0-.14-1.44,1.84,1.84,0,0,0-1.59-1.56c1.72-.62,2.22-2,1.35-3.25.81,0,1.62,0,2.43,0a1.19,1.19,0,0,1,1.15,1.21A1.2,1.2,0,0,1,40,50.84c-.47,0-.8.23-.82.72s.27.7.75.78a1.13,1.13,0,0,1,1,1.12,25.14,25.14,0,0,1-.11,6.31,4.84,4.84,0,0,1-4.74,3.76C35.69,63.54,35.31,63.52,34.94,63.52Z"/><path class="cls-4" d="M23,42.85h8.09c1.89,0,3.78,0,5.66,0,.85,0,1-.18,1-1.06V35c0-.78-.18-1-.93-1H23.48L23,34a.87.87,0,0,1,.57-.08h16c1,0,1.47.46,1.47,1.45v6.06a1.29,1.29,0,0,1-1.47,1.46h-16A.86.86,0,0,1,23,42.85Z"/><path class="cls-6" d="M54.07,39.89c.14-1.1.22-2.2.31-3.31s.25-2.46.38-3.69c.92,0,1.85,0,2.77,0,.31,0,.39.07.36.38-.16,1.57-.3,3.14-.44,4.7-.05.55-.12,1.1-.15,1.65,0,.26-.11.33-.35.33C56,39.9,55,39.9,54.07,39.89Z"/><path class="cls-6" d="M37.38,32.47A2,2,0,0,0,37.85,31a7.86,7.86,0,0,0-.38-2.72,6.17,6.17,0,0,0-2.3-2.89,1.49,1.49,0,0,1-.14-.12,5.12,5.12,0,0,1,5.7,3.39A7.11,7.11,0,0,1,41,31.43a1.15,1.15,0,0,1-1.16,1C39,32.5,38.19,32.48,37.38,32.47Z"/><path class="cls-5" d="M27.14,20.28c0-1,0-2,0-2.92a.83.83,0,0,1,.89-.89H32.5a.93.93,0,0,1,.43.88c0,.82,0,1.65,0,2.48,0,.33-.12.5-.5.49H27.37A.37.37,0,0,1,27.14,20.28Z"/><path class="cls-4" d="M27.14,20.28c1.72,0,3.44,0,5.17,0,.39,0,.5-.12.49-.5,0-.71,0-1.43,0-2.15a2.13,2.13,0,0,0-.29-1.16c.84,0,1.69,0,2.53,0a.82.82,0,0,1,.89.84c0,.92,0,1.85,0,2.78,0,.24-.1.29-.32.29H27.37C27.29,20.38,27.17,20.42,27.14,20.28Z"/><path class="cls-6" d="M27,46.92c.17-.15.37-.08.56-.08q4.74,0,9.47,0a.62.62,0,0,0,.7-.5,2,2,0,0,0,.09-1c-.09-.68-.28-.83-1-.83h-14a.49.49,0,0,1,.37-.08h16.5a1.24,1.24,0,0,1,1.13,1.82,1.27,1.27,0,0,1-1.3.68H27Z"/><path class="cls-6" d="M34.28,24.86a7.94,7.94,0,0,0-2.86-.38c-.3,0-.4-.09-.39-.39,0-.75,0-1.49,0-2.24.94,0,1.88,0,2.82,0,.28,0,.35.08.36.36A14.9,14.9,0,0,0,34.28,24.86Z"/></g></g></svg>